<svg xmlns="http://www.w3.org/2000/svg" width="1200" height="560" viewBox="0 0 1200 560" role="img" aria-label="Lab topology — attacker network, pfSense with Snort, victim network">
<title>Lab topology — attacker network, pfSense with Snort, victim network</title>
<defs>
<linearGradient id="bg" x1="0" y1="0" x2="1" y2="1"><stop offset="0" stop-color="#0B1220"/><stop offset="1" stop-color="#111C33"/></linearGradient>
<linearGradient id="accent" x1="0" y1="0" x2="1" y2="0"><stop offset="0" stop-color="#22D3EE"/><stop offset="1" stop-color="#3B82F6"/></linearGradient>
<pattern id="grid" width="40" height="40" patternUnits="userSpaceOnUse"><path d="M40 0H0V40" fill="none" stroke="#1E2A45" stroke-width="1"/></pattern>
<filter id="glow" x="-100%" y="-100%" width="300%" height="300%"><feGaussianBlur stdDeviation="2.5" result="b"/><feMerge><feMergeNode in="b"/><feMergeNode in="SourceGraphic"/></feMerge></filter>
<marker id="arrow-22D3EE" viewBox="0 0 10 10" refX="9" refY="5" markerWidth="7" markerHeight="7" orient="auto-start-reverse"><path d="M0 0L10 5L0 10z" fill="#22D3EE"/></marker>
</defs>
<rect width="1200" height="560" rx="16" fill="url(#bg)"/>
<rect width="1200" height="560" rx="16" fill="url(#grid)" opacity="0.55"/>
<rect x="0" y="0" width="6" height="560" rx="3" fill="url(#accent)"/>
<text x="34" y="38" font-family="Inter, Segoe UI, Arial, sans-serif" font-size="20" font-weight="700" fill="#E2E8F0">Lab topology</text>
<text x="34" y="60" font-family="Inter, Segoe UI, Arial, sans-serif" font-size="13" fill="#94A3B8">Two isolated host-only networks · pfSense in the middle · Snort on both inside interfaces</text>
<rect x="60" y="120" width="330" height="330" rx="14" fill="#EF4444" fill-opacity="0.05" stroke="#EF4444" stroke-opacity="0.55" stroke-width="1.5" stroke-dasharray="6 5"/>
<rect x="72" y="109" width="213" height="21" rx="10.5" fill="#0B1220"/>
<rect x="72" y="109" width="213" height="21" rx="10.5" fill="#EF4444" fill-opacity="0.14" stroke="#EF4444" stroke-opacity="0.6"/>
<text x="80" y="123" font-family="ui-monospace, SFMono-Regular, Menlo, Consolas, monospace" font-size="11" font-weight="600" fill="#EF4444">ATTACKER NET  192.2.50.0/24</text>
<rect x="810" y="120" width="330" height="330" rx="14" fill="#4ADE80" fill-opacity="0.05" stroke="#4ADE80" stroke-opacity="0.55" stroke-width="1.5" stroke-dasharray="6 5"/>
<rect x="822" y="109" width="186" height="21" rx="10.5" fill="#0B1220"/>
<rect x="822" y="109" width="186" height="21" rx="10.5" fill="#4ADE80" fill-opacity="0.14" stroke="#4ADE80" stroke-opacity="0.6"/>
<text x="830" y="123" font-family="ui-monospace, SFMono-Regular, Menlo, Consolas, monospace" font-size="11" font-weight="600" fill="#4ADE80">VICTIM NET  10.10.20.0/24</text>
<g transform="translate(110,240)">
<rect x="-3" y="-3" width="236" height="96" rx="13" fill="none" stroke="#EF4444" stroke-width="2" opacity="0.7"><animate attributeName="opacity" values="0.8;0.15;0.8" dur="1.8s" repeatCount="indefinite"/></rect>
<rect width="230" height="90" rx="10" fill="#0F172A" stroke="#1E3A5F" stroke-width="1.5"/>
<rect width="4" height="90" rx="2" fill="#EF4444"/>
<g transform="translate(14,12)"><circle cx="14" cy="14" r="9" fill="none" stroke="#EF4444" stroke-width="2"/><circle cx="14" cy="14" r="3" fill="#EF4444"/><path d="M14 1v6M14 21v6M1 14h6M21 14h6" stroke="#EF4444" stroke-width="2" stroke-linecap="round"/></g>
<text x="52" y="28" font-family="Inter, Segoe UI, Arial, sans-serif" font-size="13" font-weight="700" fill="#E2E8F0">Kali Linux</text>
<text x="52" y="44" font-family="ui-monospace, SFMono-Regular, Menlo, Consolas, monospace" font-size="11" fill="#94A3B8">192.2.50.10</text>
<text x="52" y="58" font-family="ui-monospace, SFMono-Regular, Menlo, Consolas, monospace" font-size="11" fill="#94A3B8">nmap · hping3 · ettercap</text>
<text x="52" y="72" font-family="ui-monospace, SFMono-Regular, Menlo, Consolas, monospace" font-size="11" fill="#94A3B8">hydra · msfvenom</text>
<rect x="192" y="8" width="30" height="16" rx="8" fill="#EF4444" fill-opacity="0.18" stroke="#EF4444" stroke-opacity="0.6"/>
<text x="207.0" y="20" font-family="ui-monospace, SFMono-Regular, Menlo, Consolas, monospace" font-size="9.5" font-weight="700" fill="#EF4444" text-anchor="middle">RED</text>
</g>
<circle cx="138" cy="266" r="10" fill="none" stroke="#EF4444" stroke-width="2"><animate attributeName="r" from="10" to="34" dur="2.2s" begin="0s" repeatCount="indefinite"/><animate attributeName="opacity" from="0.9" to="0" dur="2.2s" begin="0s" repeatCount="indefinite"/></circle>
<g transform="translate(470,200)">
<rect x="-3" y="-3" width="266" height="176" rx="13" fill="none" stroke="#F59E0B" stroke-width="2" opacity="0.7"><animate attributeName="opacity" values="0.8;0.15;0.8" dur="1.8s" repeatCount="indefinite"/></rect>
<rect width="260" height="170" rx="10" fill="#0F172A" stroke="#1E3A5F" stroke-width="1.5"/>
<rect width="4" height="170" rx="2" fill="#F59E0B"/>
<g transform="translate(14,12)"><rect x="2" y="4" width="24" height="20" rx="2" fill="none" stroke="#F59E0B" stroke-width="2"/><path d="M2 11h24M2 18h24M10 4v7M18 11v7M10 18v6" stroke="#F59E0B" stroke-width="1.6"/></g>
<text x="52" y="28" font-family="Inter, Segoe UI, Arial, sans-serif" font-size="13" font-weight="700" fill="#E2E8F0">pfSense</text>
<text x="52" y="44" font-family="ui-monospace, SFMono-Regular, Menlo, Consolas, monospace" font-size="11" fill="#94A3B8">routing · firewall · NAT</text>
<text x="52" y="58" font-family="ui-monospace, SFMono-Regular, Menlo, Consolas, monospace" font-size="11" fill="#94A3B8"></text>
<text x="52" y="72" font-family="ui-monospace, SFMono-Regular, Menlo, Consolas, monospace" font-size="11" fill="#94A3B8">Snort IDS on OPT1 + LAN</text>
<text x="52" y="86" font-family="ui-monospace, SFMono-Regular, Menlo, Consolas, monospace" font-size="11" fill="#94A3B8">IPS mode: block offenders</text>
</g>
<rect x="486" y="322" width="121" height="20" rx="10.0" fill="#EF4444" fill-opacity="0.14" stroke="#EF4444" stroke-opacity="0.6"/>
<text x="494" y="335" font-family="ui-monospace, SFMono-Regular, Menlo, Consolas, monospace" font-size="10" font-weight="600" fill="#EF4444">OPT1  →  attacker</text>
<rect x="486" y="344" width="109" height="20" rx="10.0" fill="#4ADE80" fill-opacity="0.14" stroke="#4ADE80" stroke-opacity="0.6"/>
<text x="494" y="357" font-family="ui-monospace, SFMono-Regular, Menlo, Consolas, monospace" font-size="10" font-weight="600" fill="#4ADE80">LAN   →  victim</text>
<g transform="translate(860,150)">
<rect width="230" height="62" rx="10" fill="#0F172A" stroke="#1E3A5F" stroke-width="1.5"/>
<rect width="4" height="62" rx="2" fill="#4ADE80"/>
<g transform="translate(14,12)"><rect x="2" y="4" width="24" height="15" rx="2" fill="none" stroke="#4ADE80" stroke-width="2"/><path d="M9 25h10M14 19v6" stroke="#4ADE80" stroke-width="2" stroke-linecap="round"/></g>
<text x="52" y="28" font-family="Inter, Segoe UI, Arial, sans-serif" font-size="13" font-weight="700" fill="#E2E8F0">Windows 10</text>
<text x="52" y="44" font-family="ui-monospace, SFMono-Regular, Menlo, Consolas, monospace" font-size="11" fill="#94A3B8">client · SMB · RDP</text>
</g>
<g transform="translate(860,232)">
<rect width="230" height="62" rx="10" fill="#0F172A" stroke="#1E3A5F" stroke-width="1.5"/>
<rect width="4" height="62" rx="2" fill="#4ADE80"/>
<g transform="translate(14,12)"><circle cx="14" cy="14" r="11" fill="none" stroke="#4ADE80" stroke-width="2"/><path d="M3 14h22M14 3c-4 4-4 18 0 22M14 3c4 4 4 18 0 22" fill="none" stroke="#4ADE80" stroke-width="1.6"/></g>
<text x="52" y="28" font-family="Inter, Segoe UI, Arial, sans-serif" font-size="13" font-weight="700" fill="#E2E8F0">Ubuntu</text>
<text x="52" y="44" font-family="ui-monospace, SFMono-Regular, Menlo, Consolas, monospace" font-size="11" fill="#94A3B8">web · DNS · SSH</text>
</g>
<g transform="translate(860,314)">
<rect width="230" height="62" rx="10" fill="#0F172A" stroke="#1E3A5F" stroke-width="1.5"/>
<rect width="4" height="62" rx="2" fill="#4ADE80"/>
<g transform="translate(14,12)"><rect x="3" y="3" width="22" height="7" rx="2" fill="none" stroke="#4ADE80" stroke-width="2"/><rect x="3" y="12" width="22" height="7" rx="2" fill="none" stroke="#4ADE80" stroke-width="2"/><rect x="3" y="21" width="22" height="5" rx="2" fill="none" stroke="#4ADE80" stroke-width="2"/><circle cx="8" cy="6.5" r="1.4" fill="#4ADE80"/><circle cx="8" cy="15.5" r="1.4" fill="#4ADE80"/></g>
<text x="52" y="28" font-family="Inter, Segoe UI, Arial, sans-serif" font-size="13" font-weight="700" fill="#E2E8F0">Metasploitable 2</text>
<text x="52" y="44" font-family="ui-monospace, SFMono-Regular, Menlo, Consolas, monospace" font-size="11" fill="#94A3B8">FTP · Telnet · vsftpd</text>
</g>
<path d="M600.0,200 L600,130" fill="none" stroke="#64748B" stroke-width="1.5" opacity="1"/>
<text x="600" y="122" font-family="ui-monospace, SFMono-Regular, Menlo, Consolas, monospace" font-size="10.5" fill="#64748B" text-anchor="middle">WAN → NAT to hypervisor host only (never attacked)</text>
<path d="M340,285.0 L470,285.0" fill="none" stroke="#EF4444" stroke-width="2" opacity="1"/>
<path d="M730,285.0 L790,285.0 L790,181.0 L860,181.0" fill="none" stroke="#4ADE80" stroke-width="2" opacity="1"/>
<path d="M730,285.0 L790,285.0 L790,263.0 L860,263.0" fill="none" stroke="#4ADE80" stroke-width="2" opacity="1"/>
<path d="M730,285.0 L790,285.0 L790,345.0 L860,345.0" fill="none" stroke="#4ADE80" stroke-width="2" opacity="1"/>
<circle r="4" fill="#EF4444" filter="url(#glow)"><animateMotion dur="3.2s" begin="0.0s" repeatCount="indefinite" path="M340,285.0 L470,285.0 L730,285.0 L790,285.0 L790,181.0 L860,181.0"/></circle>
<circle r="4" fill="#EF4444" filter="url(#glow)"><animateMotion dur="3.2s" begin="1.1s" repeatCount="indefinite" path="M340,285.0 L470,285.0 L730,285.0 L790,285.0 L790,263.0 L860,263.0"/></circle>
<circle r="4" fill="#EF4444" filter="url(#glow)"><animateMotion dur="3.2s" begin="2.2s" repeatCount="indefinite" path="M340,285.0 L470,285.0 L730,285.0 L790,285.0 L790,345.0 L860,345.0"/></circle>
<circle cx="498" cy="226" r="10" fill="none" stroke="#F59E0B" stroke-width="2"><animate attributeName="r" from="10" to="36" dur="2.4s" begin="0.6s" repeatCount="indefinite"/><animate attributeName="opacity" from="0.9" to="0" dur="2.4s" begin="0.6s" repeatCount="indefinite"/></circle>
<g transform="translate(470,420)">
<rect width="260" height="70" rx="10" fill="#0F172A" stroke="#1E3A5F" stroke-width="1.5"/>
<rect width="4" height="70" rx="2" fill="#22D3EE"/>
<g transform="translate(14,12)"><path d="M6 20V12a8 8 0 0116 0v8l2 3H4z" fill="none" stroke="#22D3EE" stroke-width="2" stroke-linejoin="round"/><path d="M11 25a3 3 0 006 0" fill="none" stroke="#22D3EE" stroke-width="2"/></g>
<text x="52" y="28" font-family="Inter, Segoe UI, Arial, sans-serif" font-size="13" font-weight="700" fill="#E2E8F0">Snort alert + pcap</text>
<text x="52" y="44" font-family="ui-monospace, SFMono-Regular, Menlo, Consolas, monospace" font-size="11" fill="#94A3B8">what fired · why · analyst view</text>
</g>
<path d="M600.0,370 L600.0,420" fill="none" stroke="#22D3EE" stroke-width="2" opacity="1" marker-end="url(#arrow-22D3EE)"/>
<circle r="3.5" fill="#22D3EE" filter="url(#glow)"><animateMotion dur="1.5s" begin="0.5s" repeatCount="indefinite" path="M600.0,370 L600.0,420"/></circle>
<circle cx="66" cy="480" r="5" fill="#EF4444"/>
<text x="78" y="484" font-family="Inter, Segoe UI, Arial, sans-serif" font-size="11" fill="#94A3B8">attack traffic</text>
<circle cx="66" cy="498" r="5" fill="#4ADE80"/>
<text x="78" y="502" font-family="Inter, Segoe UI, Arial, sans-serif" font-size="11" fill="#94A3B8">victim segment</text>
<circle cx="266" cy="480" r="5" fill="#F59E0B"/>
<text x="278" y="484" font-family="Inter, Segoe UI, Arial, sans-serif" font-size="11" fill="#94A3B8">Snort inspection</text>
<circle cx="266" cy="498" r="5" fill="#22D3EE"/>
<text x="278" y="502" font-family="Inter, Segoe UI, Arial, sans-serif" font-size="11" fill="#94A3B8">alert + capture to the analyst</text>
<text x="1140" y="520" font-family="ui-monospace, SFMono-Regular, Menlo, Consolas, monospace" font-size="10.5" fill="#64748B" text-anchor="end">every VM snapshotted before each scenario</text>
<text x="34" y="546" font-family="ui-monospace, SFMono-Regular, Menlo, Consolas, monospace" font-size="11" fill="#64748B">Network-Attack-Simulation-Lab · assets/readme/topology.svg</text>
</svg>
